# xmcd
#
# Track frame offsets:
#	150
#	17946
#	40322
#	57681
#	73780
#	92389
#	112849
#	130870
#	151450
#	169332
#	187606
#	209287
#	235433
#	253916
#	269302
#	286966
#	309666
#	332275
#
# Disc length: 4636 seconds
#
# Revision: 1
# Processed by: cddbd v1.4PL0 Copyright (c) Steve Scherf et al.
# Submitted via: audiograbber 1.81.02
#
DISCID=02121a12
DTITLE=Martin Nievera and Regine Velasquez - Best Male and Female Filipino Artist
DYEAR=1900
DGENRE=Ballad
TTITLE0=I'll Be There For You
TTITLE1=Dadalhin
TTITLE2=It's All Up To You
TTITLE3=To Reach You
TTITLE4=Simply Amazing
TTITLE5=Hanggang Ngayon
TTITLE6=You Are My Song
TTITLE7=Pangako
TTITLE8=Forever
TTITLE9=Tanging Mahal
TTITLE10=Never Say Goodbye
TTITLE11=Sana Maulit Muli
TTITLE12=Imagine Me Without You
TTITLE13=Kailangain Ko'y Ikaw
TTITLE14=Before You Say Goodbye
TTITLE15=Tuwing Umuulan
TTITLE16=You Are My Everything
TTITLE17=Ikaw
EXTD=
EXTT0=
EXTT1=
EXTT2=
EXTT3=
EXTT4=
EXTT5=
EXTT6=
EXTT7=
EXTT8=
EXTT9=
EXTT10=
EXTT11=
EXTT12=
EXTT13=
EXTT14=
EXTT15=
EXTT16=
EXTT17=
PLAYORDER=
